<svg fill="#70C041" xmlns="http://www.w3.org/2000/svg" xmlns:xlink="http://www.w3.org/1999/xlink" version="1.1" x="0px" y="0px" viewBox="0 0 100 100" style="enable-background:new 0 0 100 100;" xml:space="preserve"><g><path d="M94.2,44.1L52,29V18.5h4.4c1.4,0,2.5-1.1,2.5-2.5c0-1.4-1.1-2.5-2.5-2.5H52v-4C52,8.1,50.9,7,49.5,7C48.1,7,47,8.1,47,9.5   v4h-3.9c-1.4,0-2.5,1.1-2.5,2.5c0,1.4,1.1,2.5,2.5,2.5H47V29l-41.5,15c-1,0.4-0.5,1.9,0.5,1.6L49.7,37l44.1,8.7   C94.9,45.9,95.2,44.4,94.2,44.1z M49.8,32.6l-0.1-0.2c0,0,0,0,0.1,0c0,0,0,0,0.1,0L49.8,32.6z"></path><path d="M58.9,11.2C58.9,11.3,58.9,11.3,58.9,11.2C58.9,11.3,58.9,11.3,58.9,11.2L58.9,11.2z"></path><polygon points="40.6,11.3 40.6,11.3 40.6,11.3  "></polygon><path d="M92.3,92.3c-0.3-0.1-0.7-0.1-1.2-0.2c-0.5-0.1-1-0.2-1.6-0.2c-0.4,0-0.7-0.1-1.1-0.2c0-0.1,0-0.2,0-0.3L87.1,73l3.6,3.2   c0.8,0.8,2.1-0.1,1.7-1.2l-1.8-4.8c-1.1-2.8-3.8-4.8-6.8-4.8h-8.9c-3,0-5.7,2-6.8,4.8L66.2,75c-0.4,1.1,0.9,2,1.7,1.2l3.6-3.2   l-1.2,17c-1.5-0.1-3-0.2-4.6-0.2c-1.3-0.1-2.6-0.1-3.9-0.1c-0.6,0-1.2,0-1.7-0.1L58.7,69l4.1,3.7c1,0.9,2.4-0.1,2-1.4l-2.1-5.4   c-1.3-3.2-4.4-5.4-7.8-5.4H44.7c-3.4,0-6.5,2.2-7.8,5.4l-2.1,5.4c-0.5,1.2,1,2.3,2,1.4l4.1-3.7l-1.4,20.5c-0.6,0-1.2,0-1.7,0.1   c-1.3,0-2.6,0.1-3.9,0.2c-1.7,0.1-3.3,0.2-4.8,0.3l-1.2-17l3.6,3.2c0.8,0.8,2.1-0.1,1.7-1.2l-1.8-4.8c-1.1-2.8-3.8-4.8-6.8-4.8   h-8.9c-3,0-5.7,2-6.8,4.8L6.9,75c-0.4,1.1,0.9,2,1.7,1.2l3.6-3.2l-1.3,18.5c0,0.1,0,0.2,0,0.3c-0.3,0-0.6,0.1-0.9,0.1   c-1.2,0.2-2.1,0.3-2.8,0.4c-0.3,0.1-0.7,0.1-0.8,0.1c-0.2,0-0.4,0-0.4,0v0.4c0,0,1.5,0,3.9,0c2.4,0,5.9,0.1,9.9,0.1   C28,93,38.9,93,49.7,93C60.6,93,71.5,93,79.7,93c4.1,0,7.3-0.1,9.7-0.1c2.4,0,3.6,0,3.6,0v-0.4c0,0,0,0-0.1,0   C92.7,92.4,92.6,92.4,92.3,92.3z M19.8,90.7c-1,0.1-2,0.2-2.9,0.3c-0.9,0.1-1.8,0.2-2.6,0.3c-0.4,0-0.7,0.1-1.1,0.1l3.7-7.1   c1.4-2.3,4.8-2.3,6.2,0l3,5.9c-1,0.1-2.1,0.1-3.1,0.2C21.9,90.5,20.9,90.6,19.8,90.7z M49.8,89.4c-2.5,0-5,0-7.4,0.1l3.9-7.5   c1.6-2.7,5.5-2.7,7.1,0l3.9,7.5c-1.1,0-2.2-0.1-3.3-0.1C52.5,89.4,51.1,89.4,49.8,89.4z M82.6,91c-0.9-0.1-1.9-0.2-2.9-0.3   c-2-0.2-4.2-0.4-6.4-0.5l3-5.8c1.4-2.3,4.8-2.3,6.2,0l3.6,7.1c-0.3,0-0.6-0.1-0.8-0.1C84.4,91.2,83.5,91.1,82.6,91z"></path><circle cx="49.8" cy="51.3" r="8.3"></circle><circle cx="20" cy="57.6" r="7.3"></circle><circle cx="79.3" cy="57.6" r="7.3"></circle></g></svg>