<svg fill="#B36AE2" xmlns="http://www.w3.org/2000/svg" xmlns:xlink="http://www.w3.org/1999/xlink" version="1.1" x="0px" y="0px" viewBox="0 0 100 100" enable-background="new 0 0 100 100" xml:space="preserve"><path fill="none" d="M63.365,27.193c-0.72-0.026-2.121,0.325-2.856,0.497c-0.176,0.041-0.352,0.082-0.527,0.135l-2.084,0.631v32.722  h13.427V28.356c-1.943-0.806-4.028-1.184-7.115-1.165C64.045,27.191,63.598,27.183,63.365,27.193z"></path><polygon fill="none" points="45.468,61.177 57.156,61.177 57.156,28.681 45.468,32.22 "></polygon><polygon fill="none" points="25.356,38.309 25.356,61.177 32.571,61.177 32.571,36.125 27.726,37.592 "></polygon><polygon fill="none" points="33.299,61.177 44.697,61.177 44.697,32.453 33.299,35.904 "></polygon><polygon fill="none" points="94.049,61.177 97.062,61.177 99.912,61.177 99.912,50.141 94.053,45.229 "></polygon><polygon fill="none" points="84.083,37.629 84.083,61.177 93.281,61.177 93.281,44.712 85.567,38.771 "></polygon><path fill="none" d="M73.563,29.528c-0.343-0.265-0.97-0.595-1.493-0.844v32.494h11.245v-24.14L73.563,29.528L73.563,29.528z"></path><path fill="#B36AE2" d="M74.031,24.246l0.081,0.067c0.035,0.029,0.078,0.054,0.112,0.083C74.199,24.339,74.109,24.293,74.031,24.246  z"></path><polygon fill="#B36AE2" points="0.356,53.89 0,53.999 0,63.829 0,72.857 0,73.276 0,73.555 4.688,74.457 4.688,52.688 0.356,53.889   "></polygon><polygon fill="#B36AE2" points="4.91,74.5 9.642,75.41 10.217,75.52 10.217,48.221 4.91,49.692 "></polygon><path fill="#B36AE2" d="M99.912,47.381c-0.292-1.29-1.293-2.647-2.524-3.658c-0.32-0.295-0.674-0.552-1.001-0.827l-8.654-7.287  l-1.676-1.411l-11.945-9.884c-0.424-0.344-0.909-0.663-1.469-0.941c-1.823-0.904-4.148-1.838-6.985-1.689  c0.02-0.003,0.027-0.005,0.004-0.002c-0.788-0.031-3.853,0.164-5.347,0.668c-0.188,0.063-0.385,0.098-0.576,0.162L24.442,34.197  l-3.287,1.088v6.285l-7.944,2.203l-2.795,0.775v31.01l12.904,2.477l0.426,0.082l14.779-3.742v-8.608h0.216v8.597l25.627,3.955  V65.767h0.195v12.566l35.35-5.574L100,72.745V61.177V50.215v-2.171C99.995,47.826,99.962,47.605,99.912,47.381z M32.571,61.177  h-7.215V38.309l2.37-0.718l4.845-1.467V61.177z M44.697,61.177H33.299V35.904l11.398-3.451V61.177z M57.156,61.177H45.468V32.22  l11.688-3.539V61.177z M71.325,61.177H57.899V28.456l2.084-0.631c0.175-0.053,0.351-0.094,0.527-0.135  c0.735-0.172,2.136-0.523,2.856-0.497c0.233-0.01,0.679-0.002,0.845-0.003c3.087-0.019,5.172,0.359,7.115,1.165V61.177z   M83.315,61.177H72.07V28.684c0.523,0.25,1.151,0.579,1.493,0.844l0,0l9.752,7.509V61.177z M93.281,61.177h-9.198V37.629  l1.484,1.143l7.715,5.941V61.177z M99.912,61.177h-2.85h-3.013l0.003-15.949l5.859,4.913V61.177z"></path></svg>