<svg fill="#F38F19" xmlns="http://www.w3.org/2000/svg" data-name="Layer 1" viewBox="0 0 100 100" x="0px" y="0px"><title>Artboard 24</title><path d="M14.4,33.64a2.5,2.5,0,1,0,0,5H71.69a2.5,2.5,0,0,0,0-5Z"></path><path d="M45.94,80.09H26.05V67.83a7.2,7.2,0,0,0-7.2-7.2H6.6V18.13a2.2,2.2,0,0,1,2.2-2.2h8.6v3.78a5.19,5.19,0,0,0,5.18,5.18h6.77a5.19,5.19,0,0,0,5.18-5.18V15.93h17v3.78a5.19,5.19,0,0,0,5.18,5.18h6.77a5.19,5.19,0,0,0,5.18-5.18V15.93h8.6a2.2,2.2,0,0,1,2.2,2.2V45.35a2.5,2.5,0,0,0,5,0V18.13a7.2,7.2,0,0,0-7.2-7.2h-8.6V6.18A5.19,5.19,0,0,0,63.51,1H56.74a5.19,5.19,0,0,0-5.18,5.18v4.75h-17V6.18A5.19,5.19,0,0,0,29.35,1H22.58A5.19,5.19,0,0,0,17.4,6.18v4.75H8.8a7.2,7.2,0,0,0-7.2,7.2V64.28a2.5,2.5,0,0,0,.73,1.77l18.3,18.3a2.5,2.5,0,0,0,1.77.73H45.94a2.5,2.5,0,0,0,0-5ZM56.55,6.18A.18.18,0,0,1,56.74,6h6.77a.18.18,0,0,1,.18.18V19.71a.18.18,0,0,1-.18.18H56.74a.18.18,0,0,1-.18-.18Zm-34.16,0A.18.18,0,0,1,22.58,6h6.77a.18.18,0,0,1,.18.18V19.71a.18.18,0,0,1-.18.18H22.58a.18.18,0,0,1-.18-.18ZM9,65.64h9.87a2.2,2.2,0,0,1,2.2,2.2V77.7Z"></path><path d="M75.38,53a23,23,0,1,0,23,23A23.05,23.05,0,0,0,75.38,53Zm0,41a18,18,0,1,1,18-18A18,18,0,0,1,75.38,94Z"></path><path d="M85,73.49h0l-7.15.05V65.7a2.5,2.5,0,0,0-5,0V76.06a2.5,2.5,0,0,0,2.5,2.5h0l9.67-.07a2.5,2.5,0,0,0,0-5Z"></path></svg>