<svg enable-background="new 0 0 50 50" fill="#51a7f9" viewBox="0 0 50 50" xmlns="http://www.w3.org/2000/svg"><g fill="#51a7f9"><path d="m42.479 9.979c.248-.228.178-.433-.158-.458l-2.637-.197c-.336-.024-.729.201-.877.503l-2.832 5.791c-.15.3-.066.362.182.136z"/><path d="m28.115 8.46c-.334-.025-.434.167-.221.425l5.355 6.509c.215.26.311.208.213-.113l-1.785-5.981c-.094-.322-.447-.606-.781-.631z"/><path d="m37.885 9.758c.146-.302-.008-.569-.342-.594l-4.514-.337c-.336-.025-.529.218-.434.54l1.902 6.372c.096.322.295.339.441.038z"/><path d="m34.363 5.175c.232-.241.152-.458-.184-.482l-2.912-.218c-.336-.025-.465.188-.287.473l1.078 1.743c.178.286.514.322.748.081z"/><path d="m39.875 5.585c.236-.239.154-.456-.18-.481l-3.142-.234c-.336-.025-.453.18-.262.455l1.246 1.783c.191.276.541.307.775.066z"/><path d="m27.91 7.102c-.234.242-.148.461.186.486l3.072.229c.334.024.463-.188.285-.474l-1.154-1.865c-.178-.285-.512-.321-.746-.08z"/><path d="m42.465 8.662c.334.024.449-.18.254-.453l-1.416-1.993c-.195-.274-.549-.303-.783-.063l-1.734 1.766c-.234.24-.154.457.18.481z"/><path d="m33.291 7.507c-.234.241-.154.457.182.482l3.223.241c.334.024.451-.182.26-.455l-1.289-1.849c-.193-.273-.543-.303-.777-.063z"/><path d="m24.078 17.734-2.811-1.051c1.155-3.089 3.403-5.645 6.331-7.195l1.404 2.65c-2.277 1.208-4.027 3.195-4.924 5.596z"/><path d="m33.916 34.913c-.336 0-.674-.013-1.014-.038-6.162-.46-11.215-5.027-12.287-11.107l2.955-.521c.833 4.728 4.761 8.279 9.554 8.636 5.773.418 10.816-3.913 11.246-9.684.252-3.364-1.146-6.67-3.74-8.84l1.926-2.301c3.332 2.789 5.129 7.037 4.807 11.364-.529 7.081-6.461 12.49-13.447 12.491z"/><path d="m17.248 45.527c-7.665 0-13.901-6.236-13.901-13.901 0-7.666 6.236-13.901 13.901-13.901 6.594 0 12.323 4.685 13.625 11.138l-2.941.594c-1.02-5.06-5.513-8.732-10.684-8.732-6.011 0-10.901 4.89-10.901 10.901s4.891 10.901 10.901 10.901c4.785 0 9.083-3.199 10.448-7.779l2.875.857c-1.743 5.842-7.221 9.922-13.323 9.922z"/></g></svg>