<?xml version="1.0" standalone="no"?>
<!DOCTYPE svg PUBLIC "-//W3C//DTD SVG 20010904//EN"
 "http://www.w3.org/TR/2001/REC-SVG-20010904/DTD/svg10.dtd">
<svg version="1.0" xmlns="http://www.w3.org/2000/svg"
 width="600.000000pt" height="600.000000pt" viewBox="0 0 600.000000 600.000000"
 preserveAspectRatio="xMidYMid meet">
<metadata>
Created by potrace 1.11, written by Peter Selinger 2001-2013
</metadata>
<g transform="translate(0.000000,600.000000) scale(0.100000,-0.100000)"
fill="#000000" stroke="none">
<path d="M2780 5868 c-872 -73 -1670 -545 -2157 -1278 -488 -733 -610 -1635
-337 -2483 262 -809 881 -1468 1679 -1785 202 -80 411 -135 655 -173 209 -32
590 -33 800 0 447 68 838 217 1195 456 393 263 705 604 934 1021 337 614 436
1382 266 2055 -134 527 -388 982 -755 1349 -601 602 -1436 909 -2280 838z
m-242 -278 c61 -19 69 -19 180 -5 146 19 426 20 592 1 462 -53 895 -225 1269
-506 253 -190 457 -407 628 -665 76 -115 99 -157 169 -296 31 -63 64 -123 74
-134 22 -23 78 -178 92 -250 5 -27 16 -75 24 -105 109 -423 101 -940 -21
-1361 -127 -435 -333 -790 -645 -1114 -64 -66 -128 -137 -143 -158 -16 -20
-34 -37 -42 -37 -7 0 -52 -29 -98 -64 -358 -274 -729 -436 -1187 -518 -111
-20 -158 -23 -415 -23 -260 0 -304 2 -425 24 -378 65 -710 195 -1015 395 -596
392 -1013 1006 -1153 1701 -52 255 -67 382 -53 429 6 17 15 119 21 226 20 368
104 684 268 1012 236 474 629 884 1087 1134 101 55 157 83 230 114 28 11 73
42 100 68 78 74 88 81 171 117 67 29 91 35 154 35 47 0 99 -8 138 -20z"/>
<path d="M2786 5521 c-33 -3 -61 -11 -63 -18 -2 -6 17 -35 43 -64 115 -130
142 -307 70 -464 -35 -76 -138 -177 -220 -216 -36 -17 -68 -35 -71 -39 -3 -5
12 -22 34 -39 25 -20 46 -50 61 -86 12 -30 27 -55 32 -55 10 0 58 -102 58
-123 0 -7 13 -39 30 -72 16 -33 30 -64 30 -69 0 -5 14 -31 31 -57 23 -36 35
-72 46 -141 9 -51 16 -94 17 -95 7 -9 82 29 105 53 17 17 54 37 85 48 31 9 71
30 89 45 18 16 42 31 54 35 25 8 103 90 103 108 0 7 23 39 50 71 28 32 50 68
50 81 0 12 11 75 25 141 14 66 37 176 51 245 40 198 76 250 188 271 115 21
219 -26 275 -125 35 -60 40 -110 16 -156 -8 -16 -44 -72 -80 -126 -77 -115
-85 -146 -56 -207 27 -55 27 -94 1 -102 -27 -9 -54 9 -82 52 -18 30 -23 52
-23 103 1 81 30 142 122 253 43 53 48 79 23 127 -28 55 -71 80 -138 80 -47 0
-58 -4 -83 -31 -16 -17 -31 -41 -34 -53 -2 -11 -11 -64 -20 -116 -35 -199 -44
-248 -55 -289 -11 -44 -8 -58 22 -79 13 -9 18 -27 19 -60 0 -26 4 -56 8 -67 5
-12 0 -41 -12 -77 -24 -70 -53 -93 -108 -85 -43 6 -46 2 -23 -32 15 -20 15
-33 4 -115 -6 -50 -18 -120 -25 -156 -14 -67 -45 -284 -65 -445 -6 -49 -14
-106 -17 -126 -3 -21 0 -39 6 -43 7 -5 11 9 11 43 0 47 2 50 28 53 21 2 29 11
38 37 7 21 26 44 50 60 21 15 53 47 71 71 75 101 95 120 160 151 110 52 186
40 217 -34 10 -25 23 -36 52 -45 29 -9 46 -23 67 -57 31 -49 57 -126 64 -192
4 -34 1 -43 -16 -52 -37 -20 -23 -84 58 -263 24 -53 35 -68 52 -68 11 0 47 -7
79 -15 54 -14 70 -14 207 6 268 39 346 26 437 -71 83 -88 121 -204 133 -400 3
-50 11 -93 20 -107 16 -24 14 -44 -8 -125 -7 -27 -15 -38 -29 -38 -25 0 -32
26 -21 84 13 69 -13 58 -44 -19 -32 -77 -44 -147 -38 -211 5 -44 0 -64 -35
-145 -51 -119 -62 -159 -62 -237 0 -48 -7 -78 -30 -129 -25 -55 -29 -75 -24
-110 7 -50 -9 -77 -53 -88 -30 -7 -73 18 -73 43 0 10 12 47 26 83 17 41 29 94
33 149 5 51 16 103 28 130 34 73 40 117 38 265 -2 139 -2 140 -39 218 l-38 78
-31 -24 c-24 -19 -32 -32 -31 -53 1 -16 3 -81 4 -145 2 -112 1 -118 -30 -178
-41 -83 -71 -202 -63 -258 5 -39 2 -48 -31 -90 -26 -34 -35 -54 -31 -68 18
-55 17 -72 -6 -89 -48 -33 -139 -9 -139 37 0 20 57 177 74 202 22 33 93 243
105 311 11 60 -3 216 -22 241 -10 14 -254 10 -267 -4 -22 -24 -42 -118 -36
-172 18 -154 18 -167 2 -221 -20 -68 -20 -134 0 -193 13 -39 14 -60 5 -133
-10 -80 -9 -88 9 -112 11 -13 20 -37 20 -52 0 -55 -85 -96 -140 -68 -23 13
-25 20 -28 93 -4 126 -3 142 13 187 19 55 19 148 0 221 -8 32 -15 90 -15 130
0 110 -18 250 -38 304 -14 39 -22 49 -44 51 -30 4 -41 -11 -52 -68 -3 -19 -33
-83 -66 -143 -33 -59 -62 -118 -66 -131 -13 -52 45 -195 115 -284 23 -28 41
-60 41 -71 0 -13 12 -27 30 -36 44 -23 47 -53 9 -113 -18 -29 -37 -52 -43 -52
-20 0 -128 130 -138 167 -6 21 -39 91 -75 158 l-65 120 10 75 c5 41 25 131 43
200 33 124 33 126 31 333 l-2 208 30 17 c32 19 32 32 0 87 -23 40 -56 151 -74
255 -8 47 -20 101 -26 120 -5 19 -10 58 -10 86 0 29 -5 56 -13 62 -21 18 -184
-28 -237 -67 -25 -18 -62 -41 -82 -52 -49 -25 -63 -48 -82 -144 -9 -44 -28
-116 -41 -160 -13 -44 -35 -147 -50 -230 -15 -82 -36 -197 -48 -255 -11 -58
-21 -139 -22 -180 -2 -76 -22 -182 -48 -255 -8 -22 -24 -94 -36 -160 -12 -66
-30 -167 -41 -225 -11 -58 -27 -143 -35 -189 -15 -84 -31 -115 -66 -126 -42
-14 -80 35 -59 76 7 11 21 69 31 128 57 313 71 394 83 471 7 47 13 99 13 115
0 60 24 191 43 230 23 48 92 439 95 545 2 41 8 95 14 120 20 85 10 90 -61 33
-25 -21 -90 -67 -143 -103 -161 -109 -178 -123 -212 -180 -30 -51 -33 -62 -34
-151 -1 -53 1 -101 5 -108 4 -6 9 -122 11 -258 1 -137 8 -284 14 -328 6 -44
15 -147 21 -229 8 -127 7 -152 -6 -178 -15 -29 -18 -30 -66 -24 -27 4 -55 3
-61 -2 -7 -5 -48 -12 -92 -16 -44 -4 -95 -12 -113 -17 -28 -9 -37 -8 -53 7
-19 17 -22 16 -87 -12 l-67 -30 3 -65 c1 -35 8 -74 14 -87 10 -18 9 -28 -2
-45 -7 -12 -14 -50 -14 -87 -1 -45 -7 -74 -19 -93 -16 -25 -22 -27 -60 -21
-52 8 -137 84 -137 122 0 14 15 57 34 96 19 39 37 83 40 97 5 25 3 27 -52 38
-43 8 -66 19 -88 42 l-29 30 -5 162 -5 162 -27 3 c-14 2 -32 10 -39 18 -13 16
-17 260 -5 305 7 23 2 30 -41 61 -41 30 -51 44 -67 96 -16 55 -17 73 -7 159 6
54 12 133 14 176 l4 77 -50 37 c-36 27 -57 52 -75 92 l-25 56 1 345 c2 482 12
776 28 823 10 28 11 50 4 80 -15 65 -12 93 14 124 21 25 24 41 29 163 4 74 11
153 18 175 6 22 17 71 25 109 16 76 47 127 94 151 19 10 30 24 32 41 2 22 19
37 83 76 44 28 90 59 102 70 12 11 36 21 53 22 36 2 50 19 50 63 0 27 -4 32
-29 38 -45 10 -76 94 -76 205 1 47 5 103 9 124 l9 39 -28 -7 c-15 -4 -78 -34
-139 -68 -748 -407 -1235 -1127 -1331 -1968 -17 -153 -16 -306 4 -440 7 -41
12 -109 12 -150 0 -190 103 -554 231 -818 334 -689 980 -1202 1723 -1368 576
-130 1183 -55 1709 208 187 94 428 256 468 314 13 19 41 43 64 54 45 22 219
196 310 310 296 371 470 775 541 1255 24 168 25 505 0 675 -21 145 -61 327
-84 379 -34 80 -85 229 -93 272 -10 57 -74 192 -153 324 -397 665 -1035 1097
-1807 1226 -132 22 -492 34 -614 20z m-438 -4341 c15 -21 29 -39 32 -40 4 0
12 16 19 35 8 22 19 35 30 35 21 0 56 -36 66 -67 7 -26 17 -28 46 -12 15 8 30
6 62 -9 23 -11 53 -23 66 -27 27 -8 91 -73 91 -92 0 -17 -73 -53 -108 -53 -16
0 -46 11 -66 25 -20 14 -41 25 -47 25 -15 0 -123 62 -137 79 -10 13 -18 13
-43 3 -32 -12 -65 -3 -81 22 -12 18 -9 91 4 104 20 20 37 13 66 -28z"/>
<path d="M2314 5410 c-39 -9 -96 -51 -114 -85 -8 -14 -33 -42 -57 -61 -67 -55
-74 -75 -66 -198 3 -58 8 -106 9 -106 2 0 31 22 65 49 33 27 69 51 80 54 32 8
48 -27 42 -89 -5 -44 -1 -62 20 -106 15 -29 28 -64 29 -78 3 -21 9 -25 43 -27
22 -1 57 -5 77 -8 29 -6 39 -4 44 8 9 24 -14 57 -40 57 -30 0 -49 23 -41 50 4
13 -1 29 -14 46 -12 15 -21 33 -21 41 0 7 -9 32 -21 54 -14 28 -18 50 -14 70
7 31 10 33 57 43 14 3 47 22 72 41 26 19 67 41 91 47 44 12 46 11 78 -20 38
-37 52 -40 67 -13 32 61 -7 104 -165 181 -102 50 -163 64 -221 50z"/>
<path d="M2480 4916 c0 -7 7 -19 15 -26 19 -16 41 1 32 24 -8 20 -47 21 -47 2z"/>
<path d="M2217 4094 c-9 -9 4 -35 14 -28 5 3 9 12 9 20 0 14 -12 19 -23 8z"/>
<path d="M1910 4055 c-13 -34 -13 -85 0 -85 25 0 42 91 20 105 -6 3 -15 -6
-20 -20z"/>
<path d="M3310 4040 c-8 -5 -23 -11 -32 -14 -21 -6 -23 -25 -5 -50 13 -17 15
-16 38 20 36 59 36 65 -1 44z"/>
<path d="M3270 3844 c-6 -14 -10 -47 -10 -74 0 -38 -6 -55 -26 -79 -45 -54
-150 -104 -239 -113 l-30 -3 1 -113 c0 -68 5 -117 12 -124 8 -8 12 -4 16 13 3
13 9 42 13 63 l8 39 60 3 c33 2 67 1 75 -1 17 -5 22 -46 7 -56 -4 -3 -7 -24
-5 -45 l3 -39 16 30 c28 53 54 145 101 360 28 129 32 165 19 165 -6 0 -16 -12
-21 -26z"/>
</g>
</svg>
